<svg width="327" height="313" viewBox="0 0 327 313" fill="none" xmlns="http://www.w3.org/2000/svg">
<path fill-rule="evenodd" clip-rule="evenodd" d="M265.6 2.20002C265.4 3.50002 264.5 8.80002 263.6 14C261.6 26.4 256.4 44.2 250.1 60.1C245.2 72.6 239.4 85 238.5 85C238.3 85 237.1 83.1 235.9 80.7C232.8 74.7 225.9 66 219.9 60.6C203.8 46.2 180.6 39.2 152.5 40.3C115.7 41.9 85 59.6 63.7 91.6C48.7 114.2 40 142.1 29.4 201.5C25.2 225.6 16.4 250.2 5.4 268.6C2.4 273.6 0 278.6 0 279.7C0 281.4 1.6 282.5 7.3 284.8C33.7 295.8 70 305.1 108.5 310.6C123.7 312.8 172.3 313.6 188.8 312C204.3 310.5 216.9 308 223.8 305C231.3 301.8 230.6 300.3 221.3 299.5C206.2 298.1 195.6 293.6 188.1 285.5C172.3 268.3 174.1 237.8 191.9 219.9C200.9 210.9 217.5 204 230 204C235.8 204 247.1 206.8 253 209.7C264.3 215.2 274.4 228.3 277.1 241.1C279.2 251 276.4 265.6 270.6 274.8C269.2 277.1 268.5 279.2 269 279.5C270.2 280.2 278.7 275.9 286.5 270.7C304.2 258.7 316.9 239.6 322.8 216.1C332.7 177 323.9 139.3 299.7 117.4C288.6 107.3 272.9 99.3 260.7 97.5C258.1 97.1 256 96.2 256 95.6C256 93.8 268 76 274.9 67.7C278.1 63.7 286.9 53.9 294.4 46C301.9 38.1 308 31 308 30.4C308 28.1 295.6 17.9 282.1 8.90002C274.8 4.00002 268.1 1.97524e-05 267.4 1.97524e-05C266.6 1.97524e-05 265.8 1.00002 265.6 2.20002Z" fill="#19AE5E"/>
</svg>
